{"accessors":[{"bufferView":2,"componentType":5126,"count":852,"max":[22.204835891723633,51.566856384277344,-27.989200592041016],"min":[7.204835891723633,36.566856384277344,-42.989200592041016],"type":"VEC3"},{"bufferView":2,"byteOffset":10224,"componentType":5126,"count":852,"max":[0.999900758266449,0.9999744892120361,0.9999744892120361],"min":[-0.9998636245727539,-0.9999744892120361,-0.9999744892120361],"type":"VEC3"},{"bufferView":1,"componentType":5126,"count":852,"max":[0.875,0.9707136154174805],"min":[0.125,-8.261777221553468e-13],"type":"VEC2"},{"bufferView":0,"componentType":5125,"count":4086,"type":"SCALAR"},{"bufferView":2,"byteOffset":20448,"componentType":5126,"count":610,"max":[22.204835891723633,51.566856384277344,-27.989200592041016],"min":[7.204835891723633,36.566856384277344,-42.989200592041016],"type":"VEC3"},{"bufferView":2,"byteOffset":27768,"componentType":5126,"count":610,"max":[1,1,1],"min":[-1,-1,-1],"type":"VEC3"},{"bufferView":1,"byteOffset":6816,"componentType":5126,"count":610,"max":[0.8457136154174805,0.9707136154174805],"min":[0.15428638458251953,0.02928638458251953],"type":"VEC2"},{"bufferView":0,"byteOffset":16344,"componentType":5125,"count":1836,"type":"SCALAR"},{"bufferView":2,"byteOffset":35088,"componentType":5126,"count":1254,"max":[22.204835891723633,51.566856384277344,-27.989200592041016],"min":[7.204835891723633,36.566856384277344,-42.989200592041016],"type":"VEC3"},{"bufferView":2,"byteOffset":50136,"componentType":5126,"count":1254,"max":[1,1,1],"min":[-1,-1,-1],"type":"VEC3"},{"bufferView":1,"byteOffset":11696,"componentType":5126,"count":1254,"max":[0.9980080127716064,0.9980080127716064],"min":[0.00199203216470778,0.0018620981136336923],"type":"VEC2"},{"bufferView":0,"byteOffset":23688,"componentType":5125,"count":4062,"type":"SCALAR"},{"bufferView":2,"byteOffset":65184,"componentType":5126,"count":340,"max":[21.542360305786133,51.566856384277344,-27.989200592041016],"min":[8.397010803222656,36.566856384277344,-42.989200592041016],"type":"VEC3"},{"bufferView":2,"byteOffset":69264,"componentType":5126,"count":340,"max":[1,1,1],"min":[-1,-1,-1],"type":"VEC3"},{"bufferView":1,"byteOffset":21728,"componentType":5126,"count":340,"max":[0.9778516292572021,0.9707136154174805],"min":[0.0018926184857264161,0.0018169139511883259],"type":"VEC2"},{"bufferView":0,"byteOffset":39936,"componentType":5125,"count":936,"type":"SCALAR"}],"asset":{"extras":{"author":"qudwjdroal (https://sketchfab.com/qudwjdroal)","license":"CC-BY-4.0 (http://creativecommons.org/licenses/by/4.0/)","source":"https://sketchfab.com/3d-models/tstastastas-3f2e7956a8274871b4853d0c61dfabe8","title":"Tstastastas"},"generator":"Sketchfab-16.12.0","version":"2.0"},"bufferViews":[{"buffer":0,"byteLength":43680,"name":"floatBufferViews","target":34963},{"buffer":0,"byteLength":24448,"byteOffset":43680,"byteStride":8,"name":"floatBufferViews","target":34962},{"buffer":0,"byteLength":73344,"byteOffset":68128,"byteStride":12,"name":"floatBufferViews","target":34962}],"buffers":[{"byteLength":141472,"uri":"data:application/octet-stream;base64,"}],"materials":[{"doubleSided":true,"name":"surfaceShader6","pbrMetallicRoughness":{"baseColorFactor":[0,0,0,1],"metallicFactor":0,"roughnessFactor":0.6}},{"doubleSided":true,"name":"surfaceShader7","pbrMetallicRoughness":{"metallicFactor":0,"roughnessFactor":0.6}},{"doubleSided":true,"emissiveFactor":[0.224852,0.224852,0.224852],"name":"surfaceShader4","pbrMetallicRoughness":{"baseColorFactor":[0.159763,0.159763,0.159763,1],"metallicFactor":0,"roughnessFactor":0.6}},{"doubleSided":true,"name":"surfaceShader5","pbrMetallicRoughness":{"baseColorFactor":[0,0,0,1],"metallicFactor":0,"roughnessFactor":0.6}}],"meshes":[{"name":"pasted__polySurface4_surfaceShader6_0","primitives":[{"attributes":{"NORMAL":1,"POSITION":0,"TEXCOORD_0":2},"indices":3,"material":0,"mode":4}]},{"name":"pasted__polySurface4_surfaceShader7_0","primitives":[{"attributes":{"NORMAL":5,"POSITION":4,"TEXCOORD_0":6},"indices":7,"material":1,"mode":4}]},{"name":"pasted__polySurface4_surfaceShader4_0","primitives":[{"attributes":{"NORMAL":9,"POSITION":8,"TEXCOORD_0":10},"indices":11,"material":2,"mode":4}]},{"name":"pasted__polySurface4_surfaceShader5_0","primitives":[{"attributes":{"NORMAL":13,"POSITION":12,"TEXCOORD_0":14},"indices":15,"material":3,"mode":4}]}],"nodes":[{"children":[1],"matrix":[1,0,0,0,0,2.220446049250313e-16,-1,0,0,1,2.220446049250313e-16,0,0,0,0,1],"name":"Sketchfab_model"},{"children":[2],"matrix":[0.009999999776482582,0,0,0,0,0,0.009999999776482582,0,0,-0.009999999776482582,0,0,0,0,0,1],"name":"132c0fd398424237a46eec0d661ac49a.fbx"},{"children":[3],"name":"RootNode"},{"children":[4],"matrix":[1,0,0,0,0,1,0,0,0,0,1,0,-15,-36.75102615356445,35,1],"name":"group"},{"children":[5,6,7,8],"matrix":[1,0,0,0,0,1,0,0,0,0,1,0,0,-7,0,1],"name":"pasted__polySurface4"},{"mesh":0,"name":"pasted__polySurface4_surfaceShader6_0"},{"mesh":1,"name":"pasted__polySurface4_surfaceShader7_0"},{"mesh":2,"name":"pasted__polySurface4_surfaceShader4_0"},{"mesh":3,"name":"pasted__polySurface4_surfaceShader5_0"}],"scene":0,"scenes":[{"name":"Sketchfab_Scene","nodes":[0]}]}